<svg width="72" height="51" viewBox="0 0 72 51" fill="none" xmlns="http://www.w3.org/2000/svg">
<rect width="72" height="51" rx="10" fill="#4E4E4E"/>
<path d="M51.8336 17.8815C51.2862 17.635 50.6785 17.5549 50.0859 17.651C49.4934 17.7471 48.9421 18.0152 48.5007 18.422L44.6272 22.0252V19.4129C44.6272 17.9794 44.0578 16.6047 43.0442 15.5911C42.0306 14.5775 40.6558 14.0081 39.2224 14.0081H23.008C21.5745 14.0081 20.1998 14.5775 19.1862 15.5911C18.1726 16.6047 17.6032 17.9794 17.6032 19.4129V33.8257C17.6032 35.2591 18.1726 36.6339 19.1862 37.6475C20.1998 38.6611 21.5745 39.2305 23.008 39.2305H39.2224C40.6558 39.2305 42.0306 38.6611 43.0442 37.6475C44.0578 36.6339 44.6272 35.2591 44.6272 33.8257V31.2134L48.5187 34.8166C49.0916 35.3351 49.8358 35.6239 50.6085 35.6273C51.0374 35.6263 51.4611 35.5342 51.8516 35.357C52.383 35.1421 52.8382 34.7736 53.1591 34.2987C53.48 33.8237 53.6521 33.2639 53.6532 32.6907V20.5479C53.6506 19.9726 53.4759 19.4113 53.1517 18.9361C52.8274 18.4609 52.3684 18.0936 51.8336 17.8815ZM41.024 33.8257C41.024 34.3035 40.8342 34.7617 40.4963 35.0996C40.1585 35.4375 39.7002 35.6273 39.2224 35.6273H23.008C22.5302 35.6273 22.0719 35.4375 21.7341 35.0996C21.3962 34.7617 21.2064 34.3035 21.2064 33.8257V19.4129C21.2064 18.935 21.3962 18.4768 21.7341 18.1389C22.0719 17.8011 22.5302 17.6113 23.008 17.6113H39.2224C39.7002 17.6113 40.1585 17.8011 40.4963 18.1389C40.8342 18.4768 41.024 18.935 41.024 19.4129V33.8257ZM50.032 31.3034L44.9695 26.6193L50.032 21.9351V31.3034Z" fill="white"/>
</svg>
