<svg width="62" height="44" viewBox="0 0 62 44" fill="none" xmlns="http://www.w3.org/2000/svg">
<path d="M19.6371 30.4345H18.1247V31.9469V37.2962C17.8799 37.2135 17.6153 37.1197 17.3338 37.0137C15.7229 36.4078 13.5817 35.4153 11.4488 33.8725C7.222 30.8149 3 25.5913 3 16.7172C3 9.14137 9.14141 3 16.7172 3H28.607C36.1828 3 42.3241 9.14137 42.3241 16.7172C42.3241 24.2931 36.1828 30.4345 28.607 30.4345H19.6371Z" stroke="#81E6D9" stroke-width="4.06197"/>
<mask id="mask0_13_45" style="mask-type:luminance" maskUnits="userSpaceOnUse" x="29" y="13" width="33" height="31">
<path fill-rule="evenodd" clip-rule="evenodd" d="M29.4445 29.9403C31.1473 34.616 35.6317 37.9547 40.8962 37.9547H45.3496V43.8366C45.3496 43.8366 61.9867 40.8957 61.9867 25.7711C61.9867 19.0421 56.5319 13.5872 49.8029 13.5872H40.8962C40.8396 13.5872 40.7832 13.5877 40.7269 13.5885C40.7829 14.1195 40.8116 14.6588 40.8116 15.2047C40.8116 22.2814 35.9852 28.2306 29.4445 29.9403Z" fill="white"/>
</mask>
<g mask="url(#mask0_13_45)">
<path d="M29.4445 29.9403L28.6795 27.0137L25.4654 27.8539L26.6021 30.9755L29.4445 29.9403ZM45.3496 37.9547H48.3745V34.9298H45.3496V37.9547ZM45.3496 43.8366H42.3247V47.443L45.8761 46.8154L45.3496 43.8366ZM40.7269 13.5885L40.6856 10.5637L37.3709 10.6089L37.7186 13.9058L40.7269 13.5885ZM26.6021 30.9755C28.7259 36.8074 34.3199 40.9797 40.8961 40.9797V34.9298C36.9435 34.9298 33.5684 32.4244 32.2867 28.9052L26.6021 30.9755ZM40.8961 40.9797H45.3496V34.9298H40.8961V40.9797ZM42.3247 37.9547V43.8366H48.3745V37.9547H42.3247ZM45.3496 43.8366C45.8761 46.8154 45.8775 46.8151 45.8788 46.8148C45.8794 46.8148 45.8809 46.8145 45.882 46.8143C45.8843 46.8139 45.8867 46.8134 45.8894 46.813C45.895 46.8119 45.9015 46.8108 45.9089 46.8093C45.924 46.8066 45.9431 46.8031 45.9659 46.7986C46.0119 46.7898 46.0735 46.7777 46.1497 46.762C46.3022 46.7304 46.5133 46.6842 46.7751 46.6209C47.2978 46.4946 48.0262 46.2992 48.8926 46.0148C50.6148 45.4493 52.9367 44.5146 55.2829 43.0335C60.0217 40.0418 65.0117 34.681 65.0117 25.7711H58.9618C58.9618 31.9856 55.633 35.6578 52.0533 37.9177C50.2402 39.0623 48.4028 39.808 47.0056 40.2667C46.3121 40.4943 45.7409 40.6468 45.3537 40.7404C45.1605 40.7871 45.0143 40.8189 44.9231 40.8378C44.8774 40.8472 44.8455 40.8534 44.8286 40.8567C44.8201 40.8584 44.8153 40.8591 44.8142 40.8594C44.8137 40.8594 44.8142 40.8594 44.8157 40.8591C44.8165 40.859 44.8174 40.8588 44.8186 40.8585C44.8192 40.8585 44.8202 40.8582 44.8205 40.8582C44.8218 40.8581 44.823 40.8578 45.3496 43.8366ZM65.0117 25.7711C65.0117 17.3714 58.2024 10.5623 49.8029 10.5623V16.6122C54.8612 16.6122 58.9618 20.7128 58.9618 25.7711H65.0117ZM49.8029 10.5623H40.8961V16.6122H49.8029V10.5623ZM40.8961 10.5623C40.826 10.5623 40.7558 10.5628 40.6856 10.5637L40.768 16.6131C40.8107 16.6125 40.8533 16.6122 40.8961 16.6122V10.5623ZM37.7186 13.9058C37.7635 14.3317 37.7867 14.765 37.7867 15.2047H43.8365C43.8365 14.5527 43.8022 13.9074 43.735 13.271L37.7186 13.9058ZM37.7867 15.2047C37.7867 20.8716 33.9219 25.6434 28.6795 27.0137L30.2095 32.867C38.0485 30.8179 43.8365 23.691 43.8365 15.2047H37.7867Z" fill="#81E6D9"/>
</g>
</svg>
