<svg width="72" height="51" viewBox="0 0 72 51" fill="none" xmlns="http://www.w3.org/2000/svg">
<rect width="72" height="51" rx="10" fill="#4E4E4E"/>
<path d="M35.9425 10.0169C35.7615 10.0461 35.5827 10.0874 35.4073 10.1404C34.4785 10.3496 33.651 10.8742 33.0654 11.6248C32.4799 12.3755 32.1726 13.3059 32.1959 14.2576V22.4919C32.1959 23.5838 32.6297 24.631 33.4018 25.4031C34.1739 26.1752 35.2211 26.609 36.3131 26.609C37.405 26.609 38.4522 26.1752 39.2243 25.4031C39.9964 24.631 40.4302 23.5838 40.4302 22.4919V14.2576C40.4501 13.674 40.3457 13.0928 40.1238 12.5527C39.9019 12.0125 39.5676 11.5258 39.1432 11.1247C38.7187 10.7236 38.2139 10.4174 37.662 10.2264C37.1102 10.0354 36.5241 9.96403 35.9425 10.0169ZM25.4026 18.3747C24.9765 18.518 24.6091 18.7967 24.3563 19.1684C24.1035 19.5402 23.9794 19.9844 24.0028 20.4333V22.4919C24.0028 28.5852 28.4905 33.567 34.2957 34.5963V38.9604H32.2371C29.9727 38.9604 28.1199 40.8131 28.1199 43.0776H44.6297C44.6297 40.8131 42.777 38.9604 40.5125 38.9604H38.454V34.5963C44.2591 33.6081 48.7468 28.5852 48.7468 22.4919V20.4333C48.7468 19.8873 48.5299 19.3637 48.1439 18.9777C47.7578 18.5916 47.2342 18.3747 46.6882 18.3747C46.1423 18.3747 45.6187 18.5916 45.2326 18.9777C44.8466 19.3637 44.6297 19.8873 44.6297 20.4333V22.4919C44.6297 27.0619 40.9654 30.7261 36.3954 30.7261C31.8254 30.7261 28.1611 27.0619 28.1611 22.4919V20.4333C28.1661 20.1287 28.1034 19.8269 27.9777 19.5495C27.8519 19.2721 27.6661 19.0261 27.4337 18.8291C27.2014 18.6322 26.9282 18.4893 26.6339 18.4107C26.3396 18.3322 26.0316 18.3199 25.732 18.3747C25.6497 18.3698 25.5672 18.3698 25.485 18.3747H25.4026Z" fill="white"/>
</svg>
