<svg width="72" height="51" viewBox="0 0 72 51" fill="none" xmlns="http://www.w3.org/2000/svg">
<rect width="72" height="51" rx="10" fill="#81E6D9"/>
<path d="M19.5947 32.3769L27.1191 29.3671C27.44 29.238 27.7103 29.0082 27.8893 28.7122C28.0682 28.4162 28.1462 28.07 28.1114 27.7259L27.5941 22.5434C32.9809 20.6087 38.873 20.6087 44.2598 22.5434L43.7425 27.7259C43.707 28.0701 43.7847 28.4165 43.9638 28.7127C44.1428 29.0088 44.4135 29.2386 44.7348 29.3671L52.2592 32.3769C52.6074 32.5136 52.9924 32.5245 53.3479 32.4078C53.7033 32.291 54.0068 32.0539 54.2061 31.7373L57.9684 25.7178C58.1596 25.4117 58.2415 25.0497 58.2006 24.6911C58.1597 24.3325 57.9984 23.9983 57.7431 23.7431C45.6805 11.6805 26.1452 11.6993 14.1014 23.7431C13.8459 23.9983 13.6845 24.3325 13.6435 24.6912C13.6025 25.05 13.6843 25.412 13.8757 25.7183L17.6379 31.7378C17.8388 32.0553 18.1442 32.2928 18.5013 32.4094C18.8585 32.5261 19.2451 32.5146 19.5947 32.3769Z" fill="white"/>
</svg>
