<svg width="26" height="26" viewBox="0 0 26 26" fill="none" xmlns="http://www.w3.org/2000/svg">
<path d="M1.1251 0.0952125L25.0812 12.1475C25.4677 12.342 25.6266 12.8195 25.4362 13.214C25.3602 13.3715 25.2354 13.4989 25.0812 13.5764L1.1256 25.6285C0.739129 25.8229 0.271459 25.6607 0.0810257 25.2661C-0.00224536 25.0936 -0.0215484 24.8961 0.0266821 24.7101L2.40014 15.5591C2.47864 15.2564 2.7235 15.0288 3.02595 14.9773L13.7616 13.1497C13.8932 13.1273 14.0019 13.0387 14.0542 12.9182L14.0823 12.8224C14.1126 12.6364 14.0115 12.4591 13.8482 12.3895L13.7616 12.3641L2.96534 10.5269C2.66276 10.4754 2.41783 10.2477 2.33941 9.94489L0.0261413 1.01339C-0.0840568 0.588135 0.164255 0.15219 0.580763 0.0396785C0.762827 -0.00950282 0.956171 0.0102223 1.1251 0.0952125Z" fill="#A8A8A8"/>
</svg>
