<svg width="72" height="51" viewBox="0 0 72 51" fill="none" xmlns="http://www.w3.org/2000/svg">
<rect width="72" height="51" rx="10" fill="#4E4E4E"/>
<path d="M50.2895 11H21.8445C20.2741 11 19 12.2741 19 13.8445V32.8078C19 34.3782 20.2741 35.6523 21.8445 35.6523H33.2225L32.2743 38.4968H28.0076C27.2194 38.4968 26.5853 39.1309 26.5853 39.919C26.5853 40.7072 27.2194 41.3413 28.0076 41.3413H44.1264C44.9145 41.3413 45.5486 40.7072 45.5486 39.919C45.5486 39.1309 44.9145 38.4968 44.1264 38.4968H39.8596L38.9115 35.6523H50.2895C51.8599 35.6523 53.134 34.3782 53.134 32.8078V13.8445C53.134 12.2741 51.8599 11 50.2895 11ZM49.3413 31.8596H22.7927V14.7927H49.3413V31.8596Z" fill="white"/>
</svg>
